<svg width="4400" height="1025" viewBox="0 0 4400 1025" fill="none" xmlns="http://www.w3.org/2000/svg">
<g clip-path="url(#clip0_431_1304)">
<rect width="1440" height="1024" transform="translate(2960 -6)" fill="#D9D9D9"/>
<path d="M3035 134C3035 106.386 3057.39 84 3085 84H4283C4310.61 84 4333 106.386 4333 134V878C4333 905.614 4310.61 928 4283 928H3085C3057.39 928 3035 905.614 3035 878V134Z" fill="white"/>
<path d="M3544.2 807.6V835.6H3533V807.6H3544.2ZM3554.7 807.6V835.6H3543.5V807.6H3554.7ZM3565.2 807.6V835.6H3554V807.6H3565.2ZM3575.7 807.6V835.6H3564.5V807.6H3575.7ZM3586.2 807.6V835.6H3575V807.6H3586.2ZM3596.7 807.6V835.6H3585.5V807.6H3596.7ZM3607.2 807.6V835.6H3596V807.6H3607.2ZM3617.7 807.6V835.6H3606.5V807.6H3617.7ZM3628.2 807.6V835.6H3617V807.6H3628.2ZM3638.7 807.6V835.6H3627.5V807.6H3638.7ZM3649.2 807.6V835.6H3638V807.6H3649.2ZM3659.7 807.6V835.6H3648.5V807.6H3659.7ZM3670.2 807.6V835.6H3659V807.6H3670.2ZM3680.7 807.6V835.6H3669.5V807.6H3680.7ZM3691.2 807.6V835.6H3680V807.6H3691.2ZM3701.7 807.6V835.6H3690.5V807.6H3701.7ZM3712.2 807.6V835.6H3701V807.6H3712.2Z" fill="#242424"/>
<path d="M3722.7 807.6V835.6H3711.5V807.6H3722.7ZM3733.2 807.6V835.6H3722V807.6H3733.2ZM3743.7 807.6V835.6H3732.5V807.6H3743.7ZM3754.2 807.6V835.6H3743V807.6H3754.2ZM3764.7 807.6V835.6H3753.5V807.6H3764.7ZM3775.2 807.6V835.6H3764V807.6H3775.2ZM3785.7 807.6V835.6H3774.5V807.6H3785.7ZM3796.2 807.6V835.6H3785V807.6H3796.2ZM3806.7 807.6V835.6H3795.5V807.6H3806.7ZM3817.2 807.6V835.6H3806V807.6H3817.2ZM3827.7 807.6V835.6H3816.5V807.6H3827.7Z" fill="#858181"/>
<path d="M3711.5 833.5H3827V834.9H3711.5V833.5Z" fill="#858181"/>
<path d="M3517.2 591.6V619.6H3506V591.6H3517.2ZM3527.7 591.6V619.6H3516.5V591.6H3527.7ZM3538.2 591.6V619.6H3527V591.6H3538.2ZM3548.7 591.6V619.6H3537.5V591.6H3548.7ZM3559.2 591.6V619.6H3548V591.6H3559.2ZM3569.7 591.6V619.6H3558.5V591.6H3569.7ZM3580.2 591.6V619.6H3569V591.6H3580.2ZM3590.7 591.6V619.6H3579.5V591.6H3590.7ZM3601.2 591.6V619.6H3590V591.6H3601.2ZM3611.7 591.6V619.6H3600.5V591.6H3611.7ZM3622.2 591.6V619.6H3611V591.6H3622.2ZM3632.7 591.6V619.6H3621.5V591.6H3632.7ZM3643.2 591.6V619.6H3632V591.6H3643.2ZM3653.7 591.6V619.6H3642.5V591.6H3653.7ZM3664.2 591.6V619.6H3653V591.6H3664.2ZM3674.7 591.6V619.6H3663.5V591.6H3674.7ZM3685.2 591.6V619.6H3674V591.6H3685.2ZM3695.7 591.6V619.6H3684.5V591.6H3695.7ZM3706.2 591.6V619.6H3695V591.6H3706.2ZM3716.7 591.6V619.6H3705.5V591.6H3716.7ZM3727.2 591.6V619.6H3716V591.6H3727.2ZM3737.7 591.6V619.6H3726.5V591.6H3737.7ZM3748.2 591.6V619.6H3737V591.6H3748.2ZM3758.7 591.6V619.6H3747.5V591.6H3758.7ZM3769.2 591.6V619.6H3758V591.6H3769.2ZM3779.7 591.6V619.6H3768.5V591.6H3779.7ZM3790.2 591.6V619.6H3779V591.6H3790.2ZM3800.7 591.6V619.6H3789.5V591.6H3800.7ZM3811.2 591.6V619.6H3800V591.6H3811.2ZM3821.7 591.6V619.6H3810.5V591.6H3821.7ZM3832.2 591.6V619.6H3821V591.6H3832.2ZM3842.7 591.6V619.6H3831.5V591.6H3842.7ZM3853.2 591.6V619.6H3842V591.6H3853.2ZM3863.7 591.6V619.6H3852.5V591.6H3863.7Z" fill="#242424"/>
<path d="M3445.2 466.6V494.6H3434V466.6H3445.2ZM3455.7 466.6V494.6H3444.5V466.6H3455.7ZM3466.2 466.6V494.6H3455V466.6H3466.2ZM3476.7 466.6V494.6H3465.5V466.6H3476.7ZM3487.2 466.6V494.6H3476V466.6H3487.2ZM3497.7 466.6V494.6H3486.5V466.6H3497.7ZM3508.2 466.6V494.6H3497V466.6H3508.2ZM3518.7 466.6V494.6H3507.5V466.6H3518.7ZM3529.2 466.6V494.6H3518V466.6H3529.2ZM3539.7 466.6V494.6H3528.5V466.6H3539.7ZM3550.2 466.6V494.6H3539V466.6H3550.2ZM3560.7 466.6V494.6H3549.5V466.6H3560.7ZM3571.2 466.6V494.6H3560V466.6H3571.2ZM3581.7 466.6V494.6H3570.5V466.6H3581.7ZM3592.2 466.6V494.6H3581V466.6H3592.2ZM3602.7 466.6V494.6H3591.5V466.6H3602.7ZM3613.2 466.6V494.6H3602V466.6H3613.2ZM3623.7 466.6V494.6H3612.5V466.6H3623.7ZM3634.2 466.6V494.6H3623V466.6H3634.2ZM3644.7 466.6V494.6H3633.5V466.6H3644.7ZM3655.2 466.6V494.6H3644V466.6H3655.2ZM3665.7 466.6V494.6H3654.5V466.6H3665.7ZM3676.2 466.6V494.6H3665V466.6H3676.2ZM3686.7 466.6V494.6H3675.5V466.6H3686.7ZM3697.2 466.6V494.6H3686V466.6H3697.2ZM3707.7 466.6V494.6H3696.5V466.6H3707.7ZM3718.2 466.6V494.6H3707V466.6H3718.2ZM3728.7 466.6V494.6H3717.5V466.6H3728.7ZM3739.2 466.6V494.6H3728V466.6H3739.2ZM3749.7 466.6V494.6H3738.5V466.6H3749.7ZM3760.2 466.6V494.6H3749V466.6H3760.2ZM3770.7 466.6V494.6H3759.5V466.6H3770.7ZM3781.2 466.6V494.6H3770V466.6H3781.2ZM3791.7 466.6V494.6H3780.5V466.6H3791.7ZM3802.2 466.6V494.6H3791V466.6H3802.2ZM3812.7 466.6V494.6H3801.5V466.6H3812.7ZM3823.2 466.6V494.6H3812V466.6H3823.2ZM3833.7 466.6V494.6H3822.5V466.6H3833.7ZM3844.2 466.6V494.6H3833V466.6H3844.2ZM3854.7 466.6V494.6H3843.5V466.6H3854.7ZM3865.2 466.6V494.6H3854V466.6H3865.2ZM3875.7 466.6V494.6H3864.5V466.6H3875.7ZM3886.2 466.6V494.6H3875V466.6H3886.2ZM3896.7 466.6V494.6H3885.5V466.6H3896.7ZM3907.2 466.6V494.6H3896V466.6H3907.2ZM3917.7 466.6V494.6H3906.5V466.6H3917.7ZM3513.45 516.6V544.6H3502.25V516.6H3513.45ZM3523.95 516.6V544.6H3512.75V516.6H3523.95ZM3534.45 516.6V544.6H3523.25V516.6H3534.45ZM3544.95 516.6V544.6H3533.75V516.6H3544.95ZM3555.45 516.6V544.6H3544.25V516.6H3555.45ZM3565.95 516.6V544.6H3554.75V516.6H3565.95ZM3576.45 516.6V544.6H3565.25V516.6H3576.45ZM3586.95 516.6V544.6H3575.75V516.6H3586.95ZM3597.45 516.6V544.6H3586.25V516.6H3597.45ZM3607.95 516.6V544.6H3596.75V516.6H3607.95ZM3618.45 516.6V544.6H3607.25V516.6H3618.45ZM3628.95 516.6V544.6H3617.75V516.6H3628.95ZM3639.45 516.6V544.6H3628.25V516.6H3639.45ZM3649.95 516.6V544.6H3638.75V516.6H3649.95ZM3660.45 516.6V544.6H3649.25V516.6H3660.45ZM3670.95 516.6V544.6H3659.75V516.6H3670.95ZM3681.45 516.6V544.6H3670.25V516.6H3681.45ZM3691.95 516.6V544.6H3680.75V516.6H3691.95ZM3702.45 516.6V544.6H3691.25V516.6H3702.45ZM3712.95 516.6V544.6H3701.75V516.6H3712.95ZM3723.45 516.6V544.6H3712.25V516.6H3723.45ZM3733.95 516.6V544.6H3722.75V516.6H3733.95ZM3744.45 516.6V544.6H3733.25V516.6H3744.45ZM3754.95 516.6V544.6H3743.75V516.6H3754.95ZM3765.45 516.6V544.6H3754.25V516.6H3765.45ZM3775.95 516.6V544.6H3764.75V516.6H3775.95ZM3786.45 516.6V544.6H3775.25V516.6H3786.45ZM3796.95 516.6V544.6H3785.75V516.6H3796.95ZM3807.45 516.6V544.6H3796.25V516.6H3807.45ZM3817.95 516.6V544.6H3806.75V516.6H3817.95ZM3828.45 516.6V544.6H3817.25V516.6H3828.45ZM3838.95 516.6V544.6H3827.75V516.6H3838.95ZM3849.45 516.6V544.6H3838.25V516.6H3849.45Z" fill="#242424"/>
<path d="M3617 361V396H3603V361H3617ZM3630.13 361V396H3616.12V361H3630.13ZM3643.25 361V396H3629.25V361H3643.25ZM3656.38 361V396H3642.38V361H3656.38ZM3669.5 361V396H3655.5V361H3669.5ZM3682.63 361V396H3668.62V361H3682.63ZM3695.75 361V396H3681.75V361H3695.75ZM3708.88 361V396H3694.88V361H3708.88ZM3722 361V396H3708V361H3722ZM3735.13 361V396H3721.12V361H3735.13ZM3748.25 361V396H3734.25V361H3748.25ZM3761.38 361V396H3747.38V361H3761.38Z" fill="#242424"/>
<path d="M3705.94 193.616L3695.5 225.158H3664.5L3654.06 193.616L3680 175.347L3705.94 193.616ZM3646 190.947L3659.6 232H3700.4L3714 190.947L3680 167L3646 190.947Z" fill="#1A1A1A"/>
<rect width="1440" height="1024" transform="translate(1480 11)" fill="#D9D9D9"/>
<path d="M1555 151C1555 123.386 1577.39 101 1605 101H2803C2830.61 101 2853 123.386 2853 151V895C2853 922.614 2830.61 945 2803 945H1605C1577.39 945 1555 922.614 1555 895V151Z" fill="white"/>
<path d="M2338 471.526L2286 637.5H2122L2070 471.526L2204 382L2338 471.526ZM2057 471.526L2115.8 649H2292.2L2351 471.526L2204 368L2057 471.526Z" fill="#1A1A1A"/>
<path d="M2225.94 210.616L2215.5 242.158H2184.5L2174.06 210.616L2200 192.347L2225.94 210.616ZM2166 207.947L2179.6 249H2220.4L2234 207.947L2200 184L2166 207.947Z" fill="#1A1A1A"/>
<rect width="1440" height="1024" transform="translate(0 1)" fill="white"/>
<rect x="75" y="91" width="1289" height="844" rx="50" fill="#D9D9D9"/>
<g clip-path="url(#clip1_431_1304)">
<path d="M722.021 92H1361.98L1042 511.352L722.021 92ZM721 93.9591L1040.74 513L721 932.041V93.9591ZM722.021 934L1042 514.648L1361.98 934H722.021ZM1363 932.041L1043.26 513L1363 93.959V932.041Z" fill="white" stroke="#1A1A1A" stroke-width="2"/>
</g>
<path d="M264 180V200H256V180H264ZM271.5 180V200H263.5V180H271.5ZM279 180V200H271V180H279ZM286.5 180V200H278.5V180H286.5ZM294 180V200H286V180H294ZM301.5 180V200H293.5V180H301.5ZM309 180V200H301V180H309ZM316.5 180V200H308.5V180H316.5ZM324 180V200H316V180H324ZM331.5 180V200H323.5V180H331.5ZM339 180V200H331V180H339ZM346.5 180V200H338.5V180H346.5ZM354 180V200H346V180H354ZM361.5 180V200H353.5V180H361.5ZM369 180V200H361V180H369ZM376.5 180V200H368.5V180H376.5ZM384 180V200H376V180H384ZM391.5 180V200H383.5V180H391.5ZM399 180V200H391V180H399ZM406.5 180V200H398.5V180H406.5ZM414 180V200H406V180H414ZM421.5 180V200H413.5V180H421.5ZM429 180V200H421V180H429ZM436.5 180V200H428.5V180H436.5ZM444 180V200H436V180H444ZM451.5 180V200H443.5V180H451.5ZM459 180V200H451V180H459ZM466.5 180V200H458.5V180H466.5ZM474 180V200H466V180H474ZM481.5 180V200H473.5V180H481.5ZM489 180V200H481V180H489ZM496.5 180V200H488.5V180H496.5ZM504 180V200H496V180H504ZM511.5 180V200H503.5V180H511.5Z" fill="#1A1A1A"/>
<path d="M301.5 244V264H293.5V244H301.5ZM309 244V264H301V244H309ZM316.5 244V264H308.5V244H316.5ZM324 244V264H316V244H324ZM331.5 244V264H323.5V244H331.5ZM339 244V264H331V244H339ZM346.5 244V264H338.5V244H346.5ZM354 244V264H346V244H354ZM361.5 244V264H353.5V244H361.5ZM369 244V264H361V244H369ZM376.5 244V264H368.5V244H376.5ZM384 244V264H376V244H384ZM391.5 244V264H383.5V244H391.5ZM399 244V264H391V244H399ZM406.5 244V264H398.5V244H406.5ZM414 244V264H406V244H414ZM421.5 244V264H413.5V244H421.5ZM429 244V264H421V244H429ZM436.5 244V264H428.5V244H436.5ZM444 244V264H436V244H444ZM451.5 244V264H443.5V244H451.5ZM459 244V264H451V244H459ZM466.5 244V264H458.5V244H466.5Z" fill="#1A1A1A"/>
<rect x="0.5" y="-0.5" width="347" height="34" rx="4.5" transform="matrix(1 0 0 -1 210 515)" stroke="black"/>
<path d="M544.087 496.853L542.04 503H535.96L533.913 496.853L539 493.293L544.087 496.853ZM532.333 496.333L535 504.333H543L545.667 496.333L539 491.667L532.333 496.333Z" fill="#1A1A1A"/>
<rect x="0.5" y="-0.5" width="347" height="34" rx="4.5" transform="matrix(1 0 0 -1 211 448)" stroke="black"/>
<rect x="238" y="404" width="64" height="13" fill="#D9D9D9"/>
<path d="M248.6 406.8V420.8H243V406.8H248.6ZM253.85 406.8V420.8H248.25V406.8H253.85ZM259.1 406.8V420.8H253.5V406.8H259.1ZM264.35 406.8V420.8H258.75V406.8H264.35ZM269.6 406.8V420.8H264V406.8H269.6ZM274.85 406.8V420.8H269.25V406.8H274.85ZM280.1 406.8V420.8H274.5V406.8H280.1ZM285.35 406.8V420.8H279.75V406.8H285.35ZM290.6 406.8V420.8H285V406.8H290.6ZM295.85 406.8V420.8H290.25V406.8H295.85Z" fill="#1A1A1A"/>
<rect x="0.5" y="-0.5" width="347" height="34" rx="4.5" transform="matrix(1 0 0 -1 211 381)" stroke="black"/>
<rect x="238" y="337" width="64" height="13" fill="#D9D9D9"/>
<path d="M248.6 339.8V353.8H243V339.8H248.6ZM253.85 339.8V353.8H248.25V339.8H253.85ZM259.1 339.8V353.8H253.5V339.8H259.1ZM264.35 339.8V353.8H258.75V339.8H264.35ZM269.6 339.8V353.8H264V339.8H269.6ZM274.85 339.8V353.8H269.25V339.8H274.85ZM280.1 339.8V353.8H274.5V339.8H280.1ZM285.35 339.8V353.8H279.75V339.8H285.35ZM290.6 339.8V353.8H285V339.8H290.6ZM295.85 339.8V353.8H290.25V339.8H295.85Z" fill="#1A1A1A"/>
<rect x="221" y="546" width="328" height="48" rx="5" fill="#1A1A1A"/>
<path d="M356.432 573.958C356.236 573.949 356.073 573.874 355.942 573.734C355.811 573.594 355.751 573.426 355.76 573.23C355.769 573.081 355.821 572.945 355.914 572.824C355.914 572.367 355.909 571.662 355.9 570.71C355.891 569.749 355.886 569.021 355.886 568.526C355.886 568.358 355.886 568.05 355.886 567.602C355.895 567.145 355.895 566.813 355.886 566.608C355.886 566.393 355.877 566.118 355.858 565.782C355.839 565.437 355.811 565.129 355.774 564.858C355.737 564.662 355.774 564.489 355.886 564.34C356.007 564.181 356.161 564.088 356.348 564.06C356.497 564.032 356.637 564.051 356.768 564.116C356.815 564.097 356.866 564.088 356.922 564.088C357.967 564.023 358.789 564.018 359.386 564.074C360.525 564.167 361.379 564.457 361.948 564.942C362.321 565.259 362.578 565.647 362.718 566.104C362.867 566.561 362.895 567.023 362.802 567.49C362.709 567.957 362.517 568.372 362.228 568.736C362.405 568.82 362.559 568.918 362.69 569.03C363.073 569.347 363.334 569.725 363.474 570.164C363.614 570.593 363.633 571.009 363.53 571.41C363.437 571.802 363.264 572.175 363.012 572.53C362.76 572.875 362.461 573.151 362.116 573.356C361.836 573.505 361.523 573.631 361.178 573.734C360.833 573.837 360.511 573.911 360.212 573.958C359.923 574.005 359.573 574.033 359.162 574.042C358.761 574.051 358.443 574.051 358.21 574.042C357.977 574.033 357.655 574.019 357.244 574C356.833 573.981 356.563 573.967 356.432 573.958ZM357.314 572.6C357.846 572.619 358.341 572.637 358.798 572.656C359.265 572.665 359.731 572.628 360.198 572.544C360.674 572.46 361.08 572.32 361.416 572.124C361.836 571.891 362.083 571.559 362.158 571.13C362.233 570.701 362.111 570.355 361.794 570.094C361.57 569.907 361.057 569.791 360.254 569.744C359.955 569.791 359.624 569.814 359.26 569.814C358.98 569.805 358.565 569.781 358.014 569.744C357.883 569.735 357.771 569.73 357.678 569.73C357.603 569.721 357.529 569.702 357.454 569.674L357.286 569.66C357.286 569.837 357.291 570.276 357.3 570.976C357.309 571.676 357.314 572.217 357.314 572.6ZM358.112 568.344C358.205 568.344 358.425 568.339 358.77 568.33C359.349 568.321 359.792 568.325 360.1 568.344H360.184C360.455 568.297 360.669 568.223 360.828 568.12C361.192 567.905 361.397 567.565 361.444 567.098C361.491 566.631 361.36 566.267 361.052 566.006C360.707 565.717 360.109 565.535 359.26 565.46C358.756 565.423 358.084 565.427 357.244 565.474C357.281 565.941 357.295 566.865 357.286 568.246H357.328C357.692 568.293 357.953 568.325 358.112 568.344ZM365.736 572.362C365.465 571.961 365.283 571.363 365.19 570.57C365.134 569.982 365.12 569.287 365.148 568.484C365.167 567.961 365.204 567.257 365.26 566.37C365.325 565.483 365.363 564.909 365.372 564.648C365.372 564.452 365.442 564.289 365.582 564.158C365.722 564.027 365.89 563.962 366.086 563.962C366.282 563.962 366.445 564.032 366.576 564.172C366.707 564.312 366.772 564.48 366.772 564.676C366.763 564.928 366.725 565.502 366.66 566.398C366.604 567.294 366.567 568.003 366.548 568.526C366.52 569.273 366.534 569.903 366.59 570.416C366.646 570.985 366.744 571.373 366.884 571.578C367.211 572.045 367.654 572.357 368.214 572.516C368.774 572.665 369.329 572.642 369.88 572.446C370.44 572.25 370.874 571.914 371.182 571.438C371.686 570.691 371.952 569.669 371.98 568.372C371.989 567.905 371.975 567.289 371.938 566.524C371.882 565.535 371.849 564.919 371.84 564.676C371.84 564.48 371.905 564.312 372.036 564.172C372.167 564.032 372.33 563.962 372.526 563.962C372.722 563.962 372.89 564.027 373.03 564.158C373.17 564.289 373.24 564.452 373.24 564.648C373.249 564.872 373.277 565.469 373.324 566.44C373.371 567.243 373.389 567.901 373.38 568.414C373.343 569.973 373.002 571.242 372.358 572.222C372.003 572.754 371.527 573.174 370.93 573.482C370.342 573.79 369.735 573.963 369.11 574C368.485 574.037 367.864 573.921 367.248 573.65C366.632 573.37 366.128 572.941 365.736 572.362ZM379.14 573.3C379.14 573.496 379.07 573.659 378.93 573.79C378.79 573.921 378.622 573.986 378.426 573.986C378.23 573.986 378.067 573.916 377.936 573.776C377.805 573.636 377.74 573.468 377.74 573.272C377.749 572.945 377.745 571.625 377.726 569.31C377.717 567.621 377.745 566.314 377.81 565.39C376.793 565.381 375.934 565.39 375.234 565.418C375.038 565.427 374.87 565.367 374.73 565.236C374.59 565.096 374.515 564.933 374.506 564.746C374.497 564.55 374.557 564.382 374.688 564.242C374.828 564.102 374.991 564.027 375.178 564.018C375.981 563.99 377.096 563.981 378.524 563.99C379.952 563.999 381.067 563.999 381.87 563.99C382.066 563.99 382.234 564.055 382.374 564.186C382.514 564.317 382.584 564.48 382.584 564.676C382.584 564.872 382.519 565.04 382.388 565.18C382.257 565.32 382.094 565.39 381.898 565.39C381.235 565.399 380.339 565.404 379.21 565.404C379.145 566.3 379.117 567.597 379.126 569.296C379.145 571.62 379.149 572.955 379.14 573.3ZM387.548 573.3C387.548 573.496 387.478 573.659 387.338 573.79C387.198 573.921 387.03 573.986 386.834 573.986C386.638 573.986 386.475 573.916 386.344 573.776C386.213 573.636 386.148 573.468 386.148 573.272C386.157 572.945 386.153 571.625 386.134 569.31C386.125 567.621 386.153 566.314 386.218 565.39C385.201 565.381 384.342 565.39 383.642 565.418C383.446 565.427 383.278 565.367 383.138 565.236C382.998 565.096 382.923 564.933 382.914 564.746C382.905 564.55 382.965 564.382 383.096 564.242C383.236 564.102 383.399 564.027 383.586 564.018C384.389 563.99 385.504 563.981 386.932 563.99C388.36 563.999 389.475 563.999 390.278 563.99C390.474 563.99 390.642 564.055 390.782 564.186C390.922 564.317 390.992 564.48 390.992 564.676C390.992 564.872 390.927 565.04 390.796 565.18C390.665 565.32 390.502 565.39 390.306 565.39C389.643 565.399 388.747 565.404 387.618 565.404C387.553 566.3 387.525 567.597 387.534 569.296C387.553 571.62 387.557 572.955 387.548 573.3ZM394.62 574.042C394.135 573.977 393.691 573.851 393.29 573.664C392.889 573.468 392.548 573.23 392.268 572.95C391.988 572.67 391.741 572.353 391.526 571.998C391.321 571.643 391.171 571.275 391.078 570.892C390.994 570.5 390.933 570.099 390.896 569.688C390.868 569.277 390.877 568.881 390.924 568.498C390.98 568.013 391.087 567.541 391.246 567.084C391.414 566.627 391.638 566.197 391.918 565.796C392.198 565.385 392.52 565.04 392.884 564.76C393.257 564.471 393.691 564.261 394.186 564.13C394.681 563.999 395.175 563.925 395.67 563.906C395.894 563.897 396.127 563.906 396.37 563.934C396.827 563.99 397.196 564.065 397.476 564.158C398.12 564.373 398.652 564.704 399.072 565.152C399.501 565.591 399.809 566.081 399.996 566.622C400.183 567.154 400.276 567.723 400.276 568.33C400.285 568.927 400.215 569.515 400.066 570.094C399.926 570.673 399.707 571.228 399.408 571.76C399.109 572.292 398.717 572.749 398.232 573.132C397.747 573.505 397.187 573.776 396.552 573.944C395.927 574.103 395.283 574.135 394.62 574.042ZM394.83 572.614C395.698 572.773 396.505 572.591 397.252 572.068C398.008 571.545 398.503 570.761 398.736 569.716C398.876 569.081 398.909 568.484 398.834 567.924C398.759 567.355 398.563 566.86 398.246 566.44C397.929 566.011 397.546 565.707 397.098 565.53C396.883 565.446 396.711 565.39 396.58 565.362C396.459 565.334 396.309 565.32 396.132 565.32C395.992 565.32 395.838 565.315 395.67 565.306C395.493 565.297 395.259 565.311 394.97 565.348C394.438 565.413 393.892 565.745 393.332 566.342C392.772 566.93 392.441 567.7 392.338 568.652C392.263 569.315 392.296 569.935 392.436 570.514C392.585 571.093 392.87 571.559 393.29 571.914C393.701 572.259 394.214 572.493 394.83 572.614ZM409.428 574.042C409.363 574.042 409.302 574.033 409.246 574.014C408.975 574.061 408.751 573.981 408.574 573.776C408.322 573.468 408.056 573.123 407.776 572.74C407.505 572.348 407.281 572.012 407.104 571.732L406.404 570.626L405.76 569.618C405.125 568.638 404.397 567.607 403.576 566.524C403.567 567.308 403.581 568.456 403.618 569.968C403.665 571.48 403.688 572.595 403.688 573.314C403.688 573.51 403.618 573.678 403.478 573.818C403.347 573.949 403.184 574.014 402.988 574.014C402.792 574.014 402.624 573.949 402.484 573.818C402.353 573.678 402.288 573.51 402.288 573.314C402.288 572.754 402.265 571.489 402.218 569.52C402.171 567.541 402.167 566.02 402.204 564.956C402.213 564.816 402.246 564.671 402.302 564.522C402.349 564.391 402.442 564.261 402.582 564.13C402.731 564.027 402.904 563.985 403.1 564.004C403.296 564.023 403.455 564.107 403.576 564.256C404.901 565.908 406.021 567.443 406.936 568.862L407.51 569.772L408.168 570.808L408.742 571.662C408.789 568.554 408.798 566.235 408.77 564.704C408.77 564.508 408.835 564.34 408.966 564.2C409.097 564.06 409.26 563.99 409.456 563.99C409.652 563.99 409.82 564.055 409.96 564.186C410.1 564.317 410.17 564.48 410.17 564.676C410.189 565.843 410.175 568.736 410.128 573.356C410.128 573.543 410.058 573.706 409.918 573.846C409.778 573.977 409.615 574.042 409.428 574.042Z" fill="white"/>
<path d="M243.6 623.8V637.8H238V623.8H243.6ZM248.85 623.8V637.8H243.25V623.8H248.85ZM254.1 623.8V637.8H248.5V623.8H254.1ZM259.35 623.8V637.8H253.75V623.8H259.35ZM264.6 623.8V637.8H259V623.8H264.6ZM269.85 623.8V637.8H264.25V623.8H269.85ZM275.1 623.8V637.8H269.5V623.8H275.1ZM280.35 623.8V637.8H274.75V623.8H280.35ZM285.6 623.8V637.8H280V623.8H285.6ZM290.85 623.8V637.8H285.25V623.8H290.85ZM296.1 623.8V637.8H290.5V623.8H296.1ZM301.35 623.8V637.8H295.75V623.8H301.35ZM306.6 623.8V637.8H301V623.8H306.6ZM311.85 623.8V637.8H306.25V623.8H311.85ZM317.1 623.8V637.8H311.5V623.8H317.1ZM322.35 623.8V637.8H316.75V623.8H322.35ZM327.6 623.8V637.8H322V623.8H327.6ZM332.85 623.8V637.8H327.25V623.8H332.85ZM338.1 623.8V637.8H332.5V623.8H338.1ZM343.35 623.8V637.8H337.75V623.8H343.35ZM348.6 623.8V637.8H343V623.8H348.6ZM353.85 623.8V637.8H348.25V623.8H353.85ZM359.1 623.8V637.8H353.5V623.8H359.1ZM364.35 623.8V637.8H358.75V623.8H364.35ZM369.6 623.8V637.8H364V623.8H369.6ZM374.85 623.8V637.8H369.25V623.8H374.85ZM380.1 623.8V637.8H374.5V623.8H380.1ZM385.35 623.8V637.8H379.75V623.8H385.35ZM390.6 623.8V637.8H385V623.8H390.6ZM395.85 623.8V637.8H390.25V623.8H395.85ZM401.1 623.8V637.8H395.5V623.8H401.1ZM406.35 623.8V637.8H400.75V623.8H406.35ZM411.6 623.8V637.8H406V623.8H411.6ZM416.85 623.8V637.8H411.25V623.8H416.85ZM422.1 623.8V637.8H416.5V623.8H422.1ZM427.35 623.8V637.8H421.75V623.8H427.35ZM432.6 623.8V637.8H427V623.8H432.6Z" fill="#1A1A1A"/>
<path d="M471.6 623.8V637.8H466V623.8H471.6ZM476.85 623.8V637.8H471.25V623.8H476.85ZM482.1 623.8V637.8H476.5V623.8H482.1ZM487.35 623.8V637.8H481.75V623.8H487.35ZM492.6 623.8V637.8H487V623.8H492.6ZM497.85 623.8V637.8H492.25V623.8H497.85ZM503.1 623.8V637.8H497.5V623.8H503.1ZM508.35 623.8V637.8H502.75V623.8H508.35ZM513.6 623.8V637.8H508V623.8H513.6ZM518.85 623.8V637.8H513.25V623.8H518.85ZM524.1 623.8V637.8H518.5V623.8H524.1Z" fill="#1A1A1A"/>
<path d="M383.6 698.8V712.8H378V698.8H383.6ZM388.85 698.8V712.8H383.25V698.8H388.85Z" fill="#1A1A1A"/>
<line x1="218.003" y1="705.5" x2="362.003" y2="706.5" stroke="black"/>
<line x1="406.003" y1="706.5" x2="550.003" y2="707.5" stroke="black"/>
<rect x="220" y="847" width="24" height="23" rx="5" fill="black"/>
<path d="M261.6 845.8V859.8H256V845.8H261.6ZM266.85 845.8V859.8H261.25V845.8H266.85ZM272.1 845.8V859.8H266.5V845.8H272.1ZM277.35 845.8V859.8H271.75V845.8H277.35ZM282.6 845.8V859.8H277V845.8H282.6ZM287.85 845.8V859.8H282.25V845.8H287.85ZM293.1 845.8V859.8H287.5V845.8H293.1ZM298.35 845.8V859.8H292.75V845.8H298.35ZM303.6 845.8V859.8H298V845.8H303.6ZM308.85 845.8V859.8H303.25V845.8H308.85ZM314.1 845.8V859.8H308.5V845.8H314.1ZM319.35 845.8V859.8H313.75V845.8H319.35ZM324.6 845.8V859.8H319V845.8H324.6ZM329.85 845.8V859.8H324.25V845.8H329.85ZM335.1 845.8V859.8H329.5V845.8H335.1ZM340.35 845.8V859.8H334.75V845.8H340.35ZM345.6 845.8V859.8H340V845.8H345.6ZM350.85 845.8V859.8H345.25V845.8H350.85ZM356.1 845.8V859.8H350.5V845.8H356.1ZM361.35 845.8V859.8H355.75V845.8H361.35ZM366.6 845.8V859.8H361V845.8H366.6ZM371.85 845.8V859.8H366.25V845.8H371.85ZM377.1 845.8V859.8H371.5V845.8H377.1ZM382.35 845.8V859.8H376.75V845.8H382.35ZM387.6 845.8V859.8H382V845.8H387.6ZM392.85 845.8V859.8H387.25V845.8H392.85ZM398.1 845.8V859.8H392.5V845.8H398.1ZM403.35 845.8V859.8H397.75V845.8H403.35ZM408.6 845.8V859.8H403V845.8H408.6ZM413.85 845.8V859.8H408.25V845.8H413.85ZM419.1 845.8V859.8H413.5V845.8H419.1ZM424.35 845.8V859.8H418.75V845.8H424.35ZM429.6 845.8V859.8H424V845.8H429.6ZM434.85 845.8V859.8H429.25V845.8H434.85ZM440.1 845.8V859.8H434.5V845.8H440.1ZM445.35 845.8V859.8H439.75V845.8H445.35ZM450.6 845.8V859.8H445V845.8H450.6ZM455.85 845.8V859.8H450.25V845.8H455.85ZM461.1 845.8V859.8H455.5V845.8H461.1ZM466.35 845.8V859.8H460.75V845.8H466.35ZM471.6 845.8V859.8H466V845.8H471.6ZM476.85 845.8V859.8H471.25V845.8H476.85ZM482.1 845.8V859.8H476.5V845.8H482.1ZM487.35 845.8V859.8H481.75V845.8H487.35ZM492.6 845.8V859.8H487V845.8H492.6ZM497.85 845.8V859.8H492.25V845.8H497.85ZM503.1 845.8V859.8H497.5V845.8H503.1ZM508.35 845.8V859.8H502.75V845.8H508.35ZM513.6 845.8V859.8H508V845.8H513.6ZM518.85 845.8V859.8H513.25V845.8H518.85ZM524.1 845.8V859.8H518.5V845.8H524.1ZM529.35 845.8V859.8H523.75V845.8H529.35ZM534.6 845.8V859.8H529V845.8H534.6ZM539.85 845.8V859.8H534.25V845.8H539.85ZM261.6 869.8V883.8H256V869.8H261.6ZM266.85 869.8V883.8H261.25V869.8H266.85ZM272.1 869.8V883.8H266.5V869.8H272.1ZM277.35 869.8V883.8H271.75V869.8H277.35ZM282.6 869.8V883.8H277V869.8H282.6ZM287.85 869.8V883.8H282.25V869.8H287.85ZM293.1 869.8V883.8H287.5V869.8H293.1ZM298.35 869.8V883.8H292.75V869.8H298.35ZM303.6 869.8V883.8H298V869.8H303.6Z" fill="#1A1A1A"/>
<path d="M339.854 777.409L335.352 790.931H321.978L317.476 777.409L328.665 769.578L339.854 777.409ZM314 776.266L319.866 793.864H337.464L343.33 776.266L328.665 766L314 776.266Z" fill="#1A1A1A"/>
<path d="M395.184 777.409L390.682 790.931H377.308L372.806 777.409L383.995 769.578L395.184 777.409ZM369.33 776.266L375.196 793.864H392.794L398.66 776.266L383.995 766L369.33 776.266Z" fill="#1A1A1A"/>
<path d="M450.514 777.409L446.012 790.931H432.638L428.136 777.409L439.325 769.578L450.514 777.409ZM424.66 776.266L430.526 793.864H448.124L453.99 776.266L439.325 766L424.66 776.266Z" fill="#1A1A1A"/>
<path d="M133 121V141H125V121H133ZM140.5 121V141H132.5V121H140.5ZM148 121V141H140V121H148ZM155.5 121V141H147.5V121H155.5ZM163 121V141H155V121H163Z" fill="#1A1A1A"/>
</g>
<defs>
<clipPath id="clip0_431_1304">
<rect width="4400" height="1025" fill="white"/>
</clipPath>
<clipPath id="clip1_431_1304">
<path d="M720 91H1339C1352.81 91 1364 102.193 1364 116V910C1364 923.807 1352.81 935 1339 935H720V91Z" fill="white"/>
</clipPath>
</defs>
</svg>
